<svg xmlns="http://www.w3.org/2000/svg" xmlns:xlink="http://www.w3.org/1999/xlink" width="1366" zoomAndPan="magnify" viewBox="0 0 1024.5 576" height="768" preserveAspectRatio="xMidYMid meet" version="1.0"><defs><clipPath id="0c3262120b"><path d="M 432 0.140625 L 1024 0.140625 L 1024 477 L 432 477 Z M 432 0.140625 " clip-rule="nonzero"/></clipPath><clipPath id="d31b6dc498"><path d="M 999.039062 -269.398438 L 1245.765625 384.609375 L 624.039062 619.160156 L 377.308594 -34.847656 Z M 999.039062 -269.398438 " clip-rule="nonzero"/></clipPath><clipPath id="73a936583f"><path d="M 999.039062 -269.398438 L 1245.765625 384.609375 L 624.039062 619.160156 L 377.308594 -34.847656 Z M 999.039062 -269.398438 " clip-rule="nonzero"/></clipPath></defs><g clip-path="url(#0c3262120b)"><g clip-path="url(#d31b6dc498)"><g clip-path="url(#73a936583f)"><path fill="#131313" d="M 1031.371094 463.628906 C 1102.617188 433.691406 1125.042969 360.941406 1127.601562 350.792969 C 1139.972656 301.738281 1132.972656 250.261719 1110.296875 205.425781 C 1096.925781 179.046875 1080.597656 154.140625 1069.6875 126.652344 C 1034.789062 39.15625 1076.511719 -64.28125 1015.226562 -144.886719 C 979.652344 -191.703125 904.339844 -225.507812 844.382812 -207.390625 C 800.414062 -194.136719 781.113281 -151.289062 755.78125 -116.792969 C 712.53125 -57.976562 643.015625 -33.460938 573.101562 -21.941406 C 536.3125 -15.898438 498.140625 -8.519531 468.171875 13.683594 C 434.832031 38.414062 423.628906 87.210938 440.691406 124.804688 C 460.554688 168.632812 516.941406 179.230469 543.152344 221.027344 C 565.554688 256.785156 559.980469 297.605469 572.84375 336.242188 C 582.476562 365.109375 603.601562 389.375 629.34375 405.59375 C 668.144531 429.945312 707.527344 435.796875 750.699219 424.011719 C 785.300781 414.558594 820.097656 399.183594 853.65625 421.09375 C 867.988281 430.453125 879.992188 442.945312 894.050781 452.765625 C 934.445312 481.105469 986.761719 482.347656 1031.371094 463.628906 Z M 1031.371094 463.628906 " fill-opacity="1" fill-rule="nonzero"/></g></g></g></svg>